<svg width="128" height="131" viewBox="0 0 128 131" fill="none" xmlns="http://www.w3.org/2000/svg">
<rect width="128" height="128" rx="23" fill="#EBEBEB"/>
<g filter="url(#filter0_d_101_52)">
<rect x="7" y="7" width="114" height="114" rx="15" fill="#F0EFEF"/>
</g>
<g filter="url(#filter1_d_101_52)">
<path d="M56.4 22.88C54.72 26.528 51.744 31.664 49.344 34.784L52.272 36.176C54.72 33.104 57.744 28.352 60.048 24.32L56.4 22.88ZM24.864 26.144C26.88 28.928 28.8 32.624 29.424 35.072L32.736 33.68C32.016 31.184 30 27.584 27.936 24.896L24.864 26.144ZM37.776 24.32C39.216 27.152 40.416 30.896 40.752 33.248L44.256 32.096C43.968 29.696 42.576 26.048 41.088 23.312L37.776 24.32ZM39.984 33.68V59.792H43.728V33.68H39.984ZM20.832 38.096V41.6H63.168V38.096H20.832ZM57.744 16.256C49.392 17.888 34.704 18.992 22.368 19.472C22.704 20.336 23.184 21.872 23.28 22.832C35.808 22.448 50.688 21.296 60.624 19.472L57.744 16.256ZM38.928 39.296C34.8 45.584 26.832 51.872 19.632 54.896C20.496 55.664 21.696 57.056 22.32 58.016C29.52 54.56 37.488 47.84 42.048 40.64L38.928 39.296ZM44.736 39.248L41.664 40.64C46.32 47.648 54.384 54.512 61.68 57.968C62.304 56.96 63.504 55.568 64.368 54.8C57.12 51.776 48.96 45.488 44.736 39.248Z" fill="black"/>
</g>
<path d="M98.5 59V52.5C98.1667 49.3333 97.7 42.8 98.5 42C99.3 41.2 98.8333 38.3333 98.5 37L99.5 31L101 25.5L101.5 18.5" stroke="#04541A"/>
<g filter="url(#filter2_d_101_52)">
<path d="M74.32 79.664V92.192C74.32 98.192 73.792 106.592 65.776 111.536C66.448 112.064 67.408 113.072 67.84 113.744C76.24 108.08 77.248 99.056 77.248 92.24V79.664H74.32ZM76.48 104.48C78.832 107.12 81.664 110.768 83.008 113.024L85.6 111.008C84.208 108.848 81.28 105.296 78.928 102.752L76.48 104.48ZM67.84 72.56V101.6H70.72V75.824H80.752V101.504H83.68V72.56H67.84ZM91.36 69.68C89.824 75.824 87.184 81.92 83.92 85.856C84.736 86.384 86.224 87.488 86.848 88.064C90.112 83.792 93.04 77.12 94.864 70.448L91.36 69.68ZM90.88 77.312L89.2 80.624H106.864V77.312H90.88ZM105.28 77.312V78.128C104.704 99.968 104.08 107.936 102.64 109.568C102.16 110.24 101.68 110.384 100.816 110.384C99.856 110.384 97.552 110.384 95.008 110.144C95.632 111.152 96.016 112.688 96.112 113.744C98.464 113.84 100.816 113.888 102.208 113.744C103.792 113.552 104.752 113.12 105.76 111.776C107.488 109.472 108.064 101.936 108.688 79.184C108.736 78.656 108.736 77.312 108.736 77.312H105.28ZM87.28 103.52C88.192 102.944 89.728 102.512 101.008 100.208C100.768 99.536 100.48 98.288 100.384 97.472L88.72 99.632L87.088 100.784L87.28 103.52ZM87.28 103.52C87.28 102.8 89.44 101.696 89.44 101.696V101.648C91.696 97.328 94.048 91.088 95.488 85.28L92.128 84.368C91.168 89.84 88.912 95.936 88.192 97.472C87.52 99.104 86.896 100.208 86.176 100.4C86.608 101.264 87.088 102.8 87.28 103.52ZM96.16 91.664C97.84 95.456 99.472 100.544 100.096 103.568L102.88 102.512C102.208 99.584 100.432 94.592 98.752 90.848L96.16 91.664Z" fill="black"/>
</g>
<path d="M88.5 58.5C89.1667 57 90.5 53.5 90.5 51.5C90.5 49.5 90.5 46 90.5 44.5H92M92 44.5V47V52.5V55V58L90.5 41M92 44.5V37M90.5 41L87.5 34L85 26.5L81 22M90.5 41L90 33.5L90.25 29M92 42.5V37M92 37L92.5929 35.8141M93.5 34L93.1859 34.6283M95.5 31.5L93.1859 34.6283M93.1859 34.6283L92.5929 35.8141M92.5929 35.8141L92 25L94 21L97 19L90.5 24.5L90.25 29M90.25 29L90 22.5L90.5 14.5" stroke="#04541A"/>
<path d="M97.375 59C96.875 57.4659 95.875 53.8864 95.875 51.8409C95.875 49.7955 95.875 46.2159 95.875 44.6818L94.75 44M94.75 44V47.2386V52.8636V55.4205V58.4886L95.8328 41.7548M94.75 44V37.0114M95.8328 41.7548L96.25 33.4318L96.0625 28.8295M95.8328 41.7548L97.3328 37.6638L98.125 33.9432L100 26.2727L103 21.6705M94.75 42.6364V37.0114M94.75 37.0114L94.3053 35.7986M93.625 33.9432L93.8606 34.5858M92.125 31.3864L93.8606 34.5858M93.8606 34.5858L94.3053 35.7986M94.3053 35.7986L94.75 24.7386L93.25 20.6477L91 18.6023L95.875 24.2273L96.0625 28.8295M96.0625 28.8295L96.25 22.1818L95.875 14" stroke="#04541A"/>
<path d="M86 59L101 59" stroke="black"/>
<path d="M80.0732 23.1667C80.007 23.1809 79.9326 23.2096 79.855 23.25M79.855 23.25C79.6302 23.367 79.3785 23.5826 79.2236 23.8333C79.139 23.9702 79.0833 24.0759 79.0487 24.164C78.9079 24.5223 79.2247 25 79.6097 25V25C79.7642 25 80.2276 24.6667 80.3049 24.6667C80.3667 24.6667 80.5366 24.4444 80.6138 24.3333C80.7425 24.1667 81 23.8 81 23.6667C81 23.5333 81 23.3889 81 23.3333V23.3333C81 23.1607 80.8424 23.0309 80.6729 23.0642L80.1504 23.1667L79.855 23.25Z" stroke="#7DD875"/>
<path d="M79.2 24.7692L79.7556 24.2308M80.8667 23.1538L80.4 23.6062M80.4 23.6062L80.8 23.8462M80.4 23.6062L80.2 23.8M79.9333 24.0585L80.4667 24.4615M79.9333 24.0585L79.7556 24.2308M79.9333 24.0585L80.2 23.8M79.7556 24.2308L79.2 23.9231M80.2 23.8L79.8369 23.5235M79.7556 23.4615L79.8369 23.5235M79.7333 23.4615L79.6 23.3846L79.8369 23.5235" stroke="#7DD875"/>
<path d="M88.0732 21.1667C88.007 21.1809 87.9326 21.2096 87.855 21.25M87.855 21.25C87.6302 21.367 87.3785 21.5826 87.2236 21.8333C87.139 21.9702 87.0833 22.0759 87.0487 22.164C86.9079 22.5223 87.2247 23 87.6097 23V23C87.7642 23 88.2276 22.6667 88.3049 22.6667C88.3667 22.6667 88.5366 22.4444 88.6138 22.3333C88.7425 22.1667 89 21.8 89 21.6667C89 21.5333 89 21.3889 89 21.3333V21.3333C89 21.1607 88.8424 21.0309 88.6729 21.0642L88.1504 21.1667L87.855 21.25Z" stroke="#7DD875"/>
<path d="M87.2 22.7692L87.7556 22.2308M88.8667 21.1538L88.4 21.6062M88.4 21.6062L88.8 21.8462M88.4 21.6062L88.2 21.8M87.9333 22.0585L88.4667 22.4615M87.9333 22.0585L87.7556 22.2308M87.9333 22.0585L88.2 21.8M87.7556 22.2308L87.2 21.9231M88.2 21.8L87.8369 21.5235M87.7556 21.4615L87.8369 21.5235M87.7333 21.4615L87.6 21.3846L87.8369 21.5235" stroke="#7DD875"/>
<path d="M100.073 23.1667C100.007 23.1809 99.9326 23.2096 99.855 23.25M99.855 23.25C99.6302 23.367 99.3785 23.5826 99.2236 23.8333C99.139 23.9702 99.0833 24.0759 99.0487 24.164C98.9079 24.5223 99.2247 25 99.6097 25V25C99.7642 25 100.228 24.6667 100.305 24.6667C100.367 24.6667 100.537 24.4444 100.614 24.3333C100.743 24.1667 101 23.8 101 23.6667C101 23.5333 101 23.3889 101 23.3333V23.3333C101 23.1607 100.842 23.0309 100.673 23.0642L100.15 23.1667L99.855 23.25Z" stroke="#7DD875"/>
<path d="M99.2 24.7692L99.7556 24.2308M100.867 23.1538L100.4 23.6062M100.4 23.6062L100.8 23.8462M100.4 23.6062L100.2 23.8M99.9333 24.0585L100.467 24.4615M99.9333 24.0585L99.7556 24.2308M99.9333 24.0585L100.2 23.8M99.7556 24.2308L99.2 23.9231M100.2 23.8L99.8369 23.5235M99.7556 23.4615L99.8369 23.5235M99.7333 23.4615L99.6 23.3846L99.8369 23.5235" stroke="#7DD875"/>
<path d="M84.0732 28.1667C84.007 28.1809 83.9326 28.2096 83.855 28.25M83.855 28.25C83.6302 28.367 83.3785 28.5826 83.2236 28.8333C83.139 28.9702 83.0833 29.0759 83.0487 29.164C82.9079 29.5223 83.2247 30 83.6097 30V30C83.7642 30 84.2276 29.6667 84.3049 29.6667C84.3667 29.6667 84.5366 29.4444 84.6138 29.3333C84.7425 29.1667 85 28.8 85 28.6667C85 28.5333 85 28.3889 85 28.3333V28.3333C85 28.1607 84.8424 28.0309 84.6729 28.0642L84.1504 28.1667L83.855 28.25Z" stroke="#7DD875"/>
<path d="M83.2 29.7692L83.7556 29.2308M84.8667 28.1538L84.4 28.6062M84.4 28.6062L84.8 28.8462M84.4 28.6062L84.2 28.8M83.9333 29.0585L84.4667 29.4615M83.9333 29.0585L83.7556 29.2308M83.9333 29.0585L84.2 28.8M83.7556 29.2308L83.2 28.9231M84.2 28.8L83.8369 28.5235M83.7556 28.4615L83.8369 28.5235M83.7333 28.4615L83.6 28.3846L83.8369 28.5235" stroke="#7DD875"/>
<path d="M88.0732 28.1667C88.007 28.1809 87.9326 28.2096 87.855 28.25M87.855 28.25C87.6302 28.367 87.3785 28.5826 87.2236 28.8333C87.139 28.9702 87.0833 29.0759 87.0487 29.164C86.9079 29.5223 87.2247 30 87.6097 30V30C87.7642 30 88.2276 29.6667 88.3049 29.6667C88.3667 29.6667 88.5366 29.4444 88.6138 29.3333C88.7425 29.1667 89 28.8 89 28.6667C89 28.5333 89 28.3889 89 28.3333V28.3333C89 28.1607 88.8424 28.0309 88.6729 28.0642L88.1504 28.1667L87.855 28.25Z" stroke="#7DD875"/>
<path d="M87.2 29.7692L87.7556 29.2308M88.8667 28.1538L88.4 28.6062M88.4 28.6062L88.8 28.8462M88.4 28.6062L88.2 28.8M87.9333 29.0585L88.4667 29.4615M87.9333 29.0585L87.7556 29.2308M87.9333 29.0585L88.2 28.8M87.7556 29.2308L87.2 28.9231M88.2 28.8L87.8369 28.5235M87.7556 28.4615L87.8369 28.5235M87.7333 28.4615L87.6 28.3846L87.8369 28.5235" stroke="#7DD875"/>
<path d="M98.0732 28.1667C98.007 28.1809 97.9326 28.2096 97.855 28.25M97.855 28.25C97.6302 28.367 97.3785 28.5826 97.2236 28.8333C97.139 28.9702 97.0833 29.0759 97.0487 29.164C96.9079 29.5223 97.2247 30 97.6097 30V30C97.7642 30 98.2276 29.6667 98.3049 29.6667C98.3667 29.6667 98.5366 29.4444 98.6138 29.3333C98.7425 29.1667 99 28.8 99 28.6667C99 28.5333 99 28.3889 99 28.3333V28.3333C99 28.1607 98.8424 28.0309 98.6729 28.0642L98.1504 28.1667L97.855 28.25Z" stroke="#7DD875"/>
<path d="M97.2 29.7692L97.7556 29.2308M98.8667 28.1538L98.4 28.6062M98.4 28.6062L98.8 28.8462M98.4 28.6062L98.2 28.8M97.9333 29.0585L98.4667 29.4615M97.9333 29.0585L97.7556 29.2308M97.9333 29.0585L98.2 28.8M97.7556 29.2308L97.2 28.9231M98.2 28.8L97.8369 28.5235M97.7556 28.4615L97.8369 28.5235M97.7333 28.4615L97.6 28.3846L97.8369 28.5235" stroke="#7DD875"/>
<path d="M99.0732 34.1667C99.007 34.1809 98.9326 34.2096 98.855 34.25M98.855 34.25C98.6302 34.367 98.3785 34.5826 98.2236 34.8333C98.139 34.9702 98.0833 35.0759 98.0487 35.164C97.9079 35.5223 98.2247 36 98.6097 36V36C98.7642 36 99.2276 35.6667 99.3049 35.6667C99.3667 35.6667 99.5366 35.4444 99.6138 35.3333C99.7425 35.1667 100 34.8 100 34.6667C100 34.5333 100 34.3889 100 34.3333V34.3333C100 34.1607 99.8424 34.0309 99.6729 34.0642L99.1504 34.1667L98.855 34.25Z" stroke="#7DD875"/>
<path d="M98.2 35.7692L98.7556 35.2308M99.8667 34.1538L99.4 34.6062M99.4 34.6062L99.8 34.8462M99.4 34.6062L99.2 34.8M98.9333 35.0585L99.4667 35.4615M98.9333 35.0585L98.7556 35.2308M98.9333 35.0585L99.2 34.8M98.7556 35.2308L98.2 34.9231M99.2 34.8L98.8369 34.5235M98.7556 34.4615L98.8369 34.5235M98.7333 34.4615L98.6 34.3846L98.8369 34.5235" stroke="#7DD875"/>
<path d="M91.0732 35.1667C91.007 35.1809 90.9326 35.2096 90.855 35.25M90.855 35.25C90.6302 35.367 90.3785 35.5826 90.2236 35.8333C90.139 35.9702 90.0833 36.0759 90.0487 36.164C89.9079 36.5223 90.2247 37 90.6097 37V37C90.7642 37 91.2276 36.6667 91.3049 36.6667C91.3667 36.6667 91.5366 36.4444 91.6138 36.3333C91.7425 36.1667 92 35.8 92 35.6667C92 35.5333 92 35.3889 92 35.3333V35.3333C92 35.1607 91.8424 35.0309 91.6729 35.0642L91.1504 35.1667L90.855 35.25Z" stroke="#7DD875"/>
<path d="M90.2 36.7692L90.7556 36.2308M91.8667 35.1538L91.4 35.6062M91.4 35.6062L91.8 35.8462M91.4 35.6062L91.2 35.8M90.9333 36.0585L91.4667 36.4615M90.9333 36.0585L90.7556 36.2308M90.9333 36.0585L91.2 35.8M90.7556 36.2308L90.2 35.9231M91.2 35.8L90.8369 35.5235M90.7556 35.4615L90.8369 35.5235M90.7333 35.4615L90.6 35.3846L90.8369 35.5235" stroke="#7DD875"/>
<path d="M93.0732 28.1667C93.007 28.1809 92.9326 28.2096 92.855 28.25M92.855 28.25C92.6302 28.367 92.3785 28.5826 92.2236 28.8333C92.139 28.9702 92.0833 29.0759 92.0487 29.164C91.9079 29.5223 92.2247 30 92.6097 30V30C92.7642 30 93.2276 29.6667 93.3049 29.6667C93.3667 29.6667 93.5366 29.4444 93.6138 29.3333C93.7425 29.1667 94 28.8 94 28.6667C94 28.5333 94 28.3889 94 28.3333V28.3333C94 28.1607 93.8424 28.0309 93.6729 28.0642L93.1504 28.1667L92.855 28.25Z" stroke="#7DD875"/>
<path d="M92.2 29.7692L92.7556 29.2308M93.8667 28.1538L93.4 28.6062M93.4 28.6062L93.8 28.8462M93.4 28.6062L93.2 28.8M92.9333 29.0585L93.4667 29.4615M92.9333 29.0585L92.7556 29.2308M92.9333 29.0585L93.2 28.8M92.7556 29.2308L92.2 28.9231M93.2 28.8L92.8369 28.5235M92.7556 28.4615L92.8369 28.5235M92.7333 28.4615L92.6 28.3846L92.8369 28.5235" stroke="#7DD875"/>
<g filter="url(#filter3_d_101_52)">
<path d="M27 99H50V104V106.5V107L49.5 107.5L49 108L48 108.5H47.5H46.5H44H38.5H34H31H29.5L28.5 108L28 107.75L27.5 107.5L27 107V106.5V104V99Z" fill="#493323"/>
</g>
<path d="M25.5 96H50.5V98.5L49 99.5L46.5 100.5L43.5 101H40.5H37H32.5L30 100.5L27.5 100L26.5 99.5L25.5 98.5V96Z" fill="#3C1403"/>
<path d="M50 95.5C50 95.7247 49.8324 96.0544 49.2417 96.4454C48.6705 96.8236 47.811 97.1834 46.704 97.4934C44.4971 98.1113 41.4196 98.5 38 98.5C34.5804 98.5 31.5029 98.1113 29.296 97.4934C28.189 97.1834 27.3295 96.8236 26.7583 96.4454C26.1676 96.0544 26 95.7247 26 95.5C26 95.2753 26.1676 94.9456 26.7583 94.5546C27.3295 94.1764 28.189 93.8166 29.296 93.5066C31.5029 92.8887 34.5804 92.5 38 92.5C41.4196 92.5 44.4971 92.8887 46.704 93.5066C47.811 93.8166 48.6705 94.1764 49.2417 94.5546C49.8324 94.9456 50 95.2753 50 95.5Z" fill="#310303" stroke="#A35208"/>
<g filter="url(#filter4_dd_101_52)">
<path d="M36.5 97V88C36.5 85.8333 36.2 81.2 35 80C33.5 78.5 29.5 78.5 28.5 78.5C27.7 78.5 25.1667 80.1667 24 81" stroke="#3D9666"/>
</g>
<g filter="url(#filter5_dd_101_52)">
<path d="M38.5 96.5V93.5V87C38.3333 85 38.1 80.8 38.5 80C39 79 40 77.5 41 77.5C42 77.5 44.5 78 45 78C45.5 78 48 80 48.5 80.5C48.9 80.9 49.3333 82.3333 49.5 83M41 96.5C40.8333 93.8333 40.5 88.1 40.5 86.5C40.5 84.5 41 83.5 40.5 82C40 80.5 38 76.5 38 76C38 75.6352 35.5046 74.9654 33.9276 74.5975C33.6434 74.5312 33.3532 74.5 33.0614 74.5C32.101 74.5 30.5223 74.5 29.5 74.5M40 96L39 87V82.0357C39 81.6801 39.0474 81.3262 39.1409 80.9832L39.8495 78.385C40.2482 76.9233 41.4408 75.8217 42.9152 75.473C44.3467 75.1345 45.7528 74.7472 46 74.5C46.4 74.1 49.1667 74.6667 50.5 75M43 96L42 83.5V79.4031C42 78.4948 41.6876 77.6163 41.1388 76.8926C40.4884 76.0349 39.7659 75.0318 39.5 74.5C39.1 73.7 35.6667 72.5 34 72M34 95C34 94.6 33.6667 87.5 33.5 84L33 80C33 79.5 32.7 78.3 31.5 77.5C30.3 76.7 28.6667 76.5 28 76.5H25M43.5 96C43.1 94 43.3333 89.8333 43.5 88L44 85.5C44.1667 85 44.6 83.9 45 83.5C45.4 83.1 46.8333 83.6667 47.5 84L49.5 85" stroke="#3D9666" shape-rendering="crispEdges"/>
</g>
<g filter="url(#filter6_dd_101_52)">
<path d="M32.5 96C32.1667 94.3333 31.5 90.9 31.5 90.5C31.5 90 31 85 31 84.5C31 84 29 82.5 28.5 82.5C28.1 82.5 26.3333 82.5 25.5 82.5H24.5" stroke="#3D9666"/>
</g>
<ellipse cx="31.5" cy="103.5" rx="0.5" ry="2.5" fill="#9B9090"/>
<ellipse cx="31.5" cy="103.5" rx="0.5" ry="2.5" fill="#9B9090"/>
<ellipse cx="31.5" cy="103.5" rx="0.5" ry="2.5" fill="#9B9090"/>
<ellipse cx="31.5" cy="103.5" rx="0.5" ry="2.5" fill="#ADA5A5"/>
<defs>
<filter id="filter0_d_101_52" x="1" y="5" width="126" height="126" filterUnits="userSpaceOnUse" color-interpolation-filters="sRGB">
<feFlood flood-opacity="0" result="BackgroundImageFix"/>
<feColorMatrix in="SourceAlpha" type="matrix" values="0 0 0 0 0 0 0 0 0 0 0 0 0 0 0 0 0 0 127 0" result="hardAlpha"/>
<feOffset dy="4"/>
<feGaussianBlur stdDeviation="3"/>
<feComposite in2="hardAlpha" operator="out"/>
<feColorMatrix type="matrix" values="0 0 0 0 0 0 0 0 0 0 0 0 0 0 0 0 0 0 0.25 0"/>
<feBlend mode="normal" in2="BackgroundImageFix" result="effect1_dropShadow_101_52"/>
<feBlend mode="normal" in="SourceGraphic" in2="effect1_dropShadow_101_52" result="shape"/>
</filter>
<filter id="filter1_d_101_52" x="15.632" y="16.256" width="52.736" height="51.536" filterUnits="userSpaceOnUse" color-interpolation-filters="sRGB">
<feFlood flood-opacity="0" result="BackgroundImageFix"/>
<feColorMatrix in="SourceAlpha" type="matrix" values="0 0 0 0 0 0 0 0 0 0 0 0 0 0 0 0 0 0 127 0" result="hardAlpha"/>
<feOffset dy="4"/>
<feGaussianBlur stdDeviation="2"/>
<feComposite in2="hardAlpha" operator="out"/>
<feColorMatrix type="matrix" values="0 0 0 0 0 0 0 0 0 0 0 0 0 0 0 0 0 0 0.25 0"/>
<feBlend mode="normal" in2="BackgroundImageFix" result="effect1_dropShadow_101_52"/>
<feBlend mode="normal" in="SourceGraphic" in2="effect1_dropShadow_101_52" result="shape"/>
</filter>
<filter id="filter2_d_101_52" x="61.776" y="69.68" width="50.96" height="52.208" filterUnits="userSpaceOnUse" color-interpolation-filters="sRGB">
<feFlood flood-opacity="0" result="BackgroundImageFix"/>
<feColorMatrix in="SourceAlpha" type="matrix" values="0 0 0 0 0 0 0 0 0 0 0 0 0 0 0 0 0 0 127 0" result="hardAlpha"/>
<feOffset dy="4"/>
<feGaussianBlur stdDeviation="2"/>
<feComposite in2="hardAlpha" operator="out"/>
<feColorMatrix type="matrix" values="0 0 0 0 0 0 0 0 0 0 0 0 0 0 0 0 0 0 0.25 0"/>
<feBlend mode="normal" in2="BackgroundImageFix" result="effect1_dropShadow_101_52"/>
<feBlend mode="normal" in="SourceGraphic" in2="effect1_dropShadow_101_52" result="shape"/>
</filter>
<filter id="filter3_d_101_52" x="27" y="99" width="25" height="11.5" filterUnits="userSpaceOnUse" color-interpolation-filters="sRGB">
<feFlood flood-opacity="0" result="BackgroundImageFix"/>
<feColorMatrix in="SourceAlpha" type="matrix" values="0 0 0 0 0 0 0 0 0 0 0 0 0 0 0 0 0 0 127 0" result="hardAlpha"/>
<feOffset dx="1" dy="1"/>
<feGaussianBlur stdDeviation="0.5"/>
<feComposite in2="hardAlpha" operator="out"/>
<feColorMatrix type="matrix" values="0 0 0 0 0 0 0 0 0 0 0 0 0 0 0 0 0 0 0.3 0"/>
<feBlend mode="normal" in2="BackgroundImageFix" result="effect1_dropShadow_101_52"/>
<feBlend mode="normal" in="SourceGraphic" in2="effect1_dropShadow_101_52" result="shape"/>
</filter>
<filter id="filter4_dd_101_52" x="19.7094" y="78" width="21.2906" height="27" filterUnits="userSpaceOnUse" color-interpolation-filters="sRGB">
<feFlood flood-opacity="0" result="BackgroundImageFix"/>
<feColorMatrix in="SourceAlpha" type="matrix" values="0 0 0 0 0 0 0 0 0 0 0 0 0 0 0 0 0 0 127 0" result="hardAlpha"/>
<feOffset dy="4"/>
<feGaussianBlur stdDeviation="2"/>
<feComposite in2="hardAlpha" operator="out"/>
<feColorMatrix type="matrix" values="0 0 0 0 0 0 0 0 0 0 0 0 0 0 0 0 0 0 0.25 0"/>
<feBlend mode="normal" in2="BackgroundImageFix" result="effect1_dropShadow_101_52"/>
<feColorMatrix in="SourceAlpha" type="matrix" values="0 0 0 0 0 0 0 0 0 0 0 0 0 0 0 0 0 0 127 0" result="hardAlpha"/>
<feOffset dy="4"/>
<feGaussianBlur stdDeviation="2"/>
<feComposite in2="hardAlpha" operator="out"/>
<feColorMatrix type="matrix" values="0 0 0 0 0 0 0 0 0 0 0 0 0 0 0 0 0 0 0.25 0"/>
<feBlend mode="normal" in2="effect1_dropShadow_101_52" result="effect2_dropShadow_101_52"/>
<feBlend mode="normal" in="SourceGraphic" in2="effect2_dropShadow_101_52" result="shape"/>
</filter>
<filter id="filter5_dd_101_52" x="21" y="71.5211" width="33.6213" height="33.0101" filterUnits="userSpaceOnUse" color-interpolation-filters="sRGB">
<feFlood flood-opacity="0" result="BackgroundImageFix"/>
<feColorMatrix in="SourceAlpha" type="matrix" values="0 0 0 0 0 0 0 0 0 0 0 0 0 0 0 0 0 0 127 0" result="hardAlpha"/>
<feOffset dy="4"/>
<feGaussianBlur stdDeviation="2"/>
<feComposite in2="hardAlpha" operator="out"/>
<feColorMatrix type="matrix" values="0 0 0 0 0 0 0 0 0 0 0 0 0 0 0 0 0 0 0.25 0"/>
<feBlend mode="normal" in2="BackgroundImageFix" result="effect1_dropShadow_101_52"/>
<feColorMatrix in="SourceAlpha" type="matrix" values="0 0 0 0 0 0 0 0 0 0 0 0 0 0 0 0 0 0 127 0" result="hardAlpha"/>
<feOffset dy="4"/>
<feGaussianBlur stdDeviation="2"/>
<feComposite in2="hardAlpha" operator="out"/>
<feColorMatrix type="matrix" values="0 0 0 0 0 0 0 0 0 0 0 0 0 0 0 0 0 0 0.25 0"/>
<feBlend mode="normal" in2="effect1_dropShadow_101_52" result="effect2_dropShadow_101_52"/>
<feBlend mode="normal" in="SourceGraphic" in2="effect2_dropShadow_101_52" result="shape"/>
</filter>
<filter id="filter6_dd_101_52" x="20.5" y="82" width="16.4903" height="22.0981" filterUnits="userSpaceOnUse" color-interpolation-filters="sRGB">
<feFlood flood-opacity="0" result="BackgroundImageFix"/>
<feColorMatrix in="SourceAlpha" type="matrix" values="0 0 0 0 0 0 0 0 0 0 0 0 0 0 0 0 0 0 127 0" result="hardAlpha"/>
<feOffset dy="4"/>
<feGaussianBlur stdDeviation="2"/>
<feComposite in2="hardAlpha" operator="out"/>
<feColorMatrix type="matrix" values="0 0 0 0 0 0 0 0 0 0 0 0 0 0 0 0 0 0 0.25 0"/>
<feBlend mode="normal" in2="BackgroundImageFix" result="effect1_dropShadow_101_52"/>
<feColorMatrix in="SourceAlpha" type="matrix" values="0 0 0 0 0 0 0 0 0 0 0 0 0 0 0 0 0 0 127 0" result="hardAlpha"/>
<feOffset dy="4"/>
<feGaussianBlur stdDeviation="2"/>
<feComposite in2="hardAlpha" operator="out"/>
<feColorMatrix type="matrix" values="0 0 0 0 0 0 0 0 0 0 0 0 0 0 0 0 0 0 0.25 0"/>
<feBlend mode="normal" in2="effect1_dropShadow_101_52" result="effect2_dropShadow_101_52"/>
<feBlend mode="normal" in="SourceGraphic" in2="effect2_dropShadow_101_52" result="shape"/>
</filter>
</defs>
</svg>
